<mxfile host="www.draw.io" modified="2019-10-29T03:56:11.436Z" agent="Mozilla/5.0 (Macintosh; Intel Mac OS X 10_14_6) AppleWebKit/537.36 (KHTML, like Gecko) Chrome/77.0.3865.120 Safari/537.36" etag="PsgV-Uphh8rs_Zv5ItEj" version="12.1.8" type="github" pages="1">
  <diagram id="HY71IpSRQ0U3Ix4mTOQW" name="Page-1">
    <mxGraphModel dx="1302" dy="618" grid="1" gridSize="10" guides="1" tooltips="1" connect="1" arrows="1" fold="1" page="1" pageScale="1" pageWidth="827" pageHeight="1169" math="0" shadow="0">
      <root>
        <mxCell id="0"/>
        <mxCell id="1" parent="0"/>
        <mxCell id="0Bz4kUs-w9zEgILs2e0y-1" value="rotary" style="rounded=0;whiteSpace=wrap;html=1;" vertex="1" parent="1">
          <mxGeometry x="220" y="190" width="120" height="40" as="geometry"/>
        </mxCell>
        <mxCell id="0Bz4kUs-w9zEgILs2e0y-2" value="angela" style="rounded=0;whiteSpace=wrap;html=1;" vertex="1" parent="1">
          <mxGeometry x="220" y="250" width="120" height="40" as="geometry"/>
        </mxCell>
        <mxCell id="0Bz4kUs-w9zEgILs2e0y-3" value="faceless" style="rounded=0;whiteSpace=wrap;html=1;" vertex="1" parent="1">
          <mxGeometry x="220" y="130" width="120" height="40" as="geometry"/>
        </mxCell>
        <mxCell id="0Bz4kUs-w9zEgILs2e0y-4" value="feature-manager" style="rounded=0;whiteSpace=wrap;html=1;" vertex="1" parent="1">
          <mxGeometry x="400" y="130" width="120" height="40" as="geometry"/>
        </mxCell>
        <mxCell id="0Bz4kUs-w9zEgILs2e0y-5" value="apoll" style="rounded=0;whiteSpace=wrap;html=1;" vertex="1" parent="1">
          <mxGeometry x="400" y="60" width="120" height="40" as="geometry"/>
        </mxCell>
        <mxCell id="0Bz4kUs-w9zEgILs2e0y-6" value="phoneix" style="rounded=1;whiteSpace=wrap;html=1;" vertex="1" parent="1">
          <mxGeometry x="140" y="330" width="70" height="40" as="geometry"/>
        </mxCell>
        <mxCell id="0Bz4kUs-w9zEgILs2e0y-7" value="mysql" style="rounded=1;whiteSpace=wrap;html=1;arcSize=0;" vertex="1" parent="1">
          <mxGeometry x="230" y="330" width="70" height="40" as="geometry"/>
        </mxCell>
        <mxCell id="0Bz4kUs-w9zEgILs2e0y-8" value="tidb" style="rounded=1;whiteSpace=wrap;html=1;arcSize=0;" vertex="1" parent="1">
          <mxGeometry x="330" y="330" width="70" height="40" as="geometry"/>
        </mxCell>
        <mxCell id="0Bz4kUs-w9zEgILs2e0y-9" value="DE" style="rounded=0;whiteSpace=wrap;html=1;" vertex="1" parent="1">
          <mxGeometry x="210" y="60" width="120" height="40" as="geometry"/>
        </mxCell>
        <mxCell id="0Bz4kUs-w9zEgILs2e0y-10" value="third-part" style="rounded=1;whiteSpace=wrap;html=1;arcSize=0;" vertex="1" parent="1">
          <mxGeometry x="440" y="330" width="70" height="40" as="geometry"/>
        </mxCell>
      </root>
    </mxGraphModel>
  </diagram>
</mxfile>
